# xmcd
#
# Track frame offsets:
#	150
#	5469
#	14667
#	27538
#	39344
#	52534
#	67233
#	77566
#	87716
#	97471
#	112478
#	121828
#	134252
#	144004
#	155497
#	160263
#	164241
#	168514
#	172664
#
# Disc length: 2361 seconds
# Revision: 0
# Processed by: cddbd v1.5.2PL0 Copyright (c) Steve Scherf et al.
# Submitted via: dBpowerAMP V12.0
#
DISCID=04093713
DTITLE=Rodney Dillard - I Wish Life Was Like Mayberry
DYEAR=2010
DGENRE=Country
TTITLE0=Mayberry Moment
TTITLE1=The Darlin' Boys
TTITLE2=There Goes The Neighborhood
TTITLE3=There Is A Time
TTITLE4=Wicker Rocking Chair
TTITLE5=Dooley
TTITLE6=Doug's Tune
TTITLE7=Salty Dog
TTITLE8=Ebo Walker
TTITLE9=The Mayberry Hat
TTITLE10=Banjo In The Hollow
TTITLE11=Leaning On The Everlasting Arms
TTITLE12=The Andy Griffith Show Song
TTITLE13=Wet Shoes In The Sunset Suite
TTITLE14=Leaky Boat
TTITLE15=G-man Barney
TTITLE16=Pictures
TTITLE17=Goober and Roy
TTITLE18=Parenting
EXTD=
EXTT0=
EXTT1=
EXTT2=
EXTT3=
EXTT4=
EXTT5=
EXTT6=
EXTT7=
EXTT8=
EXTT9=
EXTT10=
EXTT11=
EXTT12=
EXTT13=
EXTT14=
EXTT15=
EXTT16=
EXTT17=
EXTT18=
PLAYORDER=
